<svg xmlns="http://www.w3.org/2000/svg" viewBox="0 0 64 64" role="img" aria-label="Cozy Kid Tales icon">
  <defs>
    <radialGradient id="sky" cx="34%" cy="24%" r="78%">
      <stop offset="0%" stop-color="#24327a"/>
      <stop offset="58%" stop-color="#0b1238"/>
      <stop offset="100%" stop-color="#050814"/>
    </radialGradient>
    <linearGradient id="moon" x1="18" y1="8" x2="42" y2="44">
      <stop offset="0%" stop-color="#fff8b5"/>
      <stop offset="100%" stop-color="#ffd22e"/>
    </linearGradient>
    <linearGradient id="star" x1="36" y1="17" x2="54" y2="37">
      <stop offset="0%" stop-color="#fff27a"/>
      <stop offset="100%" stop-color="#f59e0b"/>
    </linearGradient>
  </defs>
  <rect width="64" height="64" rx="16" fill="url(#sky)"/>
  <path d="M35.8 10.2c-7.3 1.2-12.9 7.5-12.9 15.2 0 8.5 6.9 15.4 15.4 15.4 4.7 0 8.9-2.1 11.7-5.4-1.6 8.8-9.3 15.4-18.6 15.4-10.5 0-19-8.5-19-19 0-9.9 7.6-18.1 17.3-18.9 2.1-.2 4.2.2 6.1 1.3Z" fill="url(#moon)"/>
  <path d="m46.4 15.1 2.3 6 6.2.4-4.8 4 1.6 6.1-5.3-3.4-5.3 3.4 1.6-6.1-4.8-4 6.2-.4 2.3-6Z" fill="url(#star)" stroke="#5a3600" stroke-width="1.8" stroke-linejoin="round"/>
  <circle cx="19" cy="16" r="1.6" fill="#dbeafe" opacity=".9"/>
  <circle cx="51" cy="45" r="1.3" fill="#fef3c7" opacity=".85"/>
  <circle cx="14" cy="46" r="1.1" fill="#bfdbfe" opacity=".75"/>
</svg>
